<svg width="94" height="22" viewBox="0 0 94 22" fill="none" xmlns="http://www.w3.org/2000/svg">
<g clip-path="url(#clip0_2262_171)">
<path d="M5.4632 5.55029C6.3372 5.55029 7.11351 5.71455 7.79476 6.04307C8.47337 6.37158 9.049 6.83257 9.51636 7.42337C9.98373 8.01417 10.3376 8.69769 10.5726 9.47129C10.8102 10.2449 10.929 11.0715 10.929 11.9484C10.929 13.13 10.7152 14.2056 10.2927 15.1753C9.86755 16.1449 9.25231 16.9159 8.44432 17.4882C7.63633 18.0604 6.6435 18.3465 5.46584 18.3465H1.11165C0.794791 18.3465 0.530741 18.2406 0.319501 18.026C0.10562 17.814 0 17.5491 0 17.2312V6.66566C0 6.35039 0.10562 6.08281 0.319501 5.87086C0.533381 5.65892 0.794791 5.55029 1.11165 5.55029H5.46584H5.4632ZM5.281 16.243C6.04675 16.243 6.67254 16.0443 7.1584 15.6495C7.64425 15.2548 8.00072 14.7302 8.22516 14.0785C8.4496 13.4267 8.56314 12.7167 8.56314 11.9484C8.56314 11.3762 8.49977 10.8304 8.37039 10.3138C8.24364 9.79716 8.0456 9.33883 7.77891 8.94408C7.51222 8.54933 7.1716 8.23406 6.75968 8.00357C6.34776 7.77308 5.85399 7.65651 5.28364 7.65651H2.09392L2.27611 7.49225V16.447L2.16521 16.2456H5.281V16.243Z" fill="#222222"/>
<path d="M17.1211 18.5267C16.2709 18.5267 15.5052 18.4207 14.8265 18.2061C14.1453 17.9942 13.4957 17.618 12.8779 17.0828C12.7194 16.9477 12.598 16.7967 12.5135 16.6271C12.429 16.4576 12.3867 16.2854 12.3867 16.1158C12.3867 15.835 12.4871 15.5886 12.6877 15.3767C12.8884 15.1647 13.1393 15.0561 13.4429 15.0561C13.6726 15.0561 13.8812 15.1303 14.0634 15.276C14.5255 15.6548 14.9823 15.941 15.4391 16.1344C15.8933 16.3304 16.4557 16.4258 17.1238 16.4258C17.5727 16.4258 17.9872 16.3569 18.3622 16.2165C18.7398 16.0761 19.0434 15.888 19.2731 15.6495C19.5029 15.4111 19.6191 15.1409 19.6191 14.8362C19.6191 14.4706 19.5108 14.1606 19.2916 13.9036C19.0725 13.6467 18.7398 13.4321 18.2909 13.2546C17.842 13.0771 17.2716 12.9419 16.5772 12.8439C15.9223 12.7459 15.3441 12.5975 14.8477 12.3962C14.3513 12.1948 13.9341 11.9405 13.6013 11.6279C13.266 11.3179 13.0152 10.9523 12.8462 10.5311C12.6745 10.1098 12.59 9.63823 12.59 9.11366C12.59 8.32152 12.7934 7.64594 13.2 7.08428C13.6066 6.52527 14.1559 6.09873 14.8477 5.80466C15.5395 5.51058 16.3052 5.36487 17.1423 5.36487C17.9318 5.36487 18.6632 5.48409 19.3365 5.72253C20.0098 5.96097 20.5591 6.26034 20.9842 6.62595C21.3354 6.90678 21.5123 7.22999 21.5123 7.5956C21.5123 7.86318 21.4093 8.10692 21.2034 8.32681C20.9974 8.54671 20.7545 8.65533 20.4746 8.65533C20.2924 8.65533 20.1287 8.59969 19.9834 8.49107C19.788 8.32151 19.5293 8.15991 19.1992 8.00625C18.8718 7.85523 18.5259 7.72542 18.1615 7.62209C17.7971 7.51877 17.4565 7.46578 17.1423 7.46578C16.6194 7.46578 16.1785 7.53202 15.822 7.66713C15.4629 7.80225 15.1936 7.98505 15.0114 8.21554C14.8292 8.44603 14.7368 8.71626 14.7368 9.01829C14.7368 9.38389 14.8424 9.68592 15.0563 9.92436C15.2675 10.1628 15.5764 10.3509 15.9752 10.4913C16.3739 10.6317 16.8571 10.7562 17.4142 10.8649C18.143 11 18.782 11.1563 19.3365 11.3391C19.8884 11.5219 20.3478 11.7577 20.7122 12.0438C21.0766 12.3299 21.3486 12.6903 21.5334 13.1221C21.7156 13.5539 21.8054 14.0811 21.8054 14.7037C21.8054 15.4959 21.5862 16.1794 21.1505 16.7517C20.7149 17.3239 20.1392 17.7637 19.4289 18.0684C18.7186 18.3731 17.9503 18.5241 17.1238 18.5241L17.1211 18.5267Z" fill="#222222"/>
<path d="M53.5309 18.5267C52.4984 18.5267 51.6033 18.3094 50.8428 17.8776C50.085 17.4458 49.5015 16.8576 49.0948 16.1131C48.6882 15.3713 48.4849 14.5288 48.4849 13.591C48.4849 12.4942 48.7067 11.559 49.1503 10.7853C49.5939 10.0117 50.1721 9.4183 50.8904 9.00235C51.6059 8.58906 52.3664 8.37976 53.1665 8.37976C53.787 8.37976 54.3705 8.50693 54.925 8.76391C55.4795 9.0209 55.9654 9.37061 56.3905 9.8157C56.8156 10.2608 57.151 10.7748 57.4018 11.3603C57.65 11.9458 57.7768 12.5657 57.7768 13.2254C57.7636 13.5168 57.65 13.7552 57.4309 13.938C57.2117 14.1209 56.9582 14.2136 56.6651 14.2136H49.7074L49.1608 12.3855H55.8466L55.4452 12.7511V12.2584C55.4215 11.906 55.2974 11.5881 55.0729 11.3073C54.8485 11.0264 54.5686 10.8039 54.2359 10.6396C53.9032 10.4754 53.5467 10.3932 53.1691 10.3932C52.7915 10.3932 52.4641 10.4409 52.1499 10.539C51.833 10.637 51.561 10.8012 51.3287 11.0317C51.099 11.2622 50.9168 11.5748 50.7821 11.9643C50.6474 12.3537 50.5814 12.8492 50.5814 13.4453C50.5814 14.1023 50.7187 14.6613 50.9907 15.117C51.2627 15.5727 51.6165 15.9197 52.0469 16.1582C52.4773 16.3966 52.9367 16.5158 53.4226 16.5158C53.8715 16.5158 54.2306 16.4788 54.4973 16.4072C54.764 16.333 54.9805 16.2456 55.1442 16.1423C55.3079 16.039 55.4558 15.9515 55.5905 15.8774C55.8096 15.7687 56.0156 15.7131 56.211 15.7131C56.4777 15.7131 56.6995 15.8058 56.8764 15.986C57.0533 16.1688 57.1404 16.3834 57.1404 16.6245C57.1404 16.953 56.9688 17.2524 56.6308 17.5199C56.3139 17.7875 55.873 18.0233 55.3 18.2247C54.727 18.426 54.1408 18.5267 53.5335 18.5267H53.5309Z" fill="#222222"/>
<path d="M62.0566 17.2285C62.0566 17.5465 61.951 17.8114 61.7371 18.0233C61.5233 18.2353 61.2593 18.3439 60.9451 18.3439C60.6309 18.3439 60.3854 18.2379 60.1795 18.0233C59.9736 17.8114 59.8706 17.5465 59.8706 17.2285V5.93446C59.8706 5.61654 59.9762 5.35161 60.1901 5.13966C60.4039 4.92771 60.6653 4.81909 60.9821 4.81909C61.2989 4.81909 61.555 4.92506 61.7556 5.13966C61.9563 5.35426 62.0566 5.61919 62.0566 5.93446V17.2285Z" fill="#222222"/>
<path d="M69.6513 8.38245C70.5015 8.38245 71.262 8.59969 71.9379 9.03153C72.6113 9.46337 73.1473 10.0568 73.5407 10.8145C73.9342 11.5722 74.1322 12.4465 74.1322 13.4453C74.1322 14.4441 73.9342 15.3263 73.5407 16.0867C73.1473 16.847 72.6166 17.4458 71.9564 17.8776C71.2963 18.3095 70.5517 18.5267 69.7252 18.5267C69.2393 18.5267 68.7852 18.4472 68.3601 18.2883C67.9349 18.1293 67.5626 17.928 67.2405 17.6842C66.9183 17.4405 66.6701 17.1941 66.4932 16.9451C66.3163 16.696 66.2292 16.4841 66.2292 16.3145L66.7942 16.0761V20.882C66.7942 21.1999 66.6913 21.4648 66.4853 21.6768C66.2793 21.8914 66.0179 21.9973 65.7011 21.9973C65.3842 21.9973 65.1255 21.894 64.9169 21.6874C64.7083 21.4807 64.6079 21.2131 64.6079 20.8846V9.68062C64.6079 9.3627 64.7109 9.09776 64.9169 8.88582C65.1228 8.67387 65.3842 8.56525 65.7011 8.56525C66.0179 8.56525 66.2767 8.67122 66.4853 8.88582C66.6913 9.10041 66.7942 9.36535 66.7942 9.68062V10.5761L66.4853 10.4118C66.4853 10.2529 66.5698 10.0621 66.7414 9.83693C66.9104 9.61173 67.1428 9.38654 67.4332 9.16135C67.7237 8.93616 68.0617 8.7507 68.4446 8.60499C68.8274 8.45928 69.2314 8.3851 69.6565 8.3851L69.6513 8.38245ZM69.3793 10.3933C68.8459 10.3933 68.3785 10.5284 67.9772 10.796C67.5758 11.0636 67.2643 11.4265 67.0398 11.8822C66.8154 12.3379 66.7018 12.8598 66.7018 13.4453C66.7018 14.0308 66.8154 14.5395 67.0398 15.0084C67.2643 15.4773 67.5758 15.8456 67.9772 16.1132C68.3785 16.3808 68.8459 16.5159 69.3793 16.5159C69.9127 16.5159 70.3774 16.3808 70.7735 16.1132C71.1669 15.8456 71.4785 15.4773 71.7029 15.0084C71.9274 14.5395 72.0409 14.0176 72.0409 13.4453C72.0409 12.8731 71.9274 12.3405 71.7029 11.8822C71.4785 11.4239 71.1696 11.0636 70.7735 10.796C70.38 10.5284 69.9153 10.3933 69.3793 10.3933Z" fill="#222222"/>
<path d="M80.6358 18.5267C79.6034 18.5267 78.7083 18.3094 77.9478 17.8776C77.19 17.4458 76.6064 16.8576 76.1998 16.1131C75.7932 15.3713 75.5898 14.5288 75.5898 13.591C75.5898 12.4942 75.8117 11.559 76.2553 10.7853C76.6989 10.0117 77.2771 9.4183 77.9953 9.00235C78.7109 8.58906 79.4714 8.37976 80.2715 8.37976C80.892 8.37976 81.4755 8.50693 82.03 8.76391C82.5845 9.0209 83.0704 9.37061 83.4955 9.8157C83.9206 10.2608 84.256 10.7748 84.5068 11.3603C84.755 11.9458 84.8818 12.5657 84.8818 13.2254C84.8686 13.5168 84.755 13.7552 84.5359 13.938C84.3167 14.1209 84.0632 14.2136 83.7701 14.2136H76.8124L76.2658 12.3855H82.9516L82.5502 12.7511V12.2584C82.5264 11.906 82.4023 11.5881 82.1779 11.3073C81.9535 11.0264 81.6736 10.8039 81.3409 10.6396C81.0082 10.4754 80.6517 10.3932 80.2741 10.3932C79.8965 10.3932 79.5691 10.4409 79.2549 10.539C78.938 10.637 78.666 10.8012 78.4337 11.0317C78.2039 11.2622 78.0217 11.5748 77.8871 11.9643C77.7524 12.3537 77.6864 12.8492 77.6864 13.4453C77.6864 14.1023 77.8237 14.6613 78.0957 15.117C78.3677 15.5727 78.7215 15.9197 79.1519 16.1582C79.5823 16.3966 80.0417 16.5158 80.5276 16.5158C80.9765 16.5158 81.3356 16.4788 81.6023 16.4072C81.869 16.333 82.0855 16.2456 82.2492 16.1423C82.4129 16.039 82.5608 15.9515 82.6954 15.8774C82.9146 15.7687 83.1206 15.7131 83.316 15.7131C83.5826 15.7131 83.8044 15.8058 83.9814 15.986C84.1583 16.1688 84.2454 16.3834 84.2454 16.6245C84.2454 16.953 84.0738 17.2524 83.7358 17.5199C83.4189 17.7875 82.978 18.0233 82.405 18.2247C81.832 18.426 81.2458 18.5267 80.6385 18.5267H80.6358Z" fill="#222222"/>
<path d="M87.8837 18.3439C87.5668 18.3439 87.3081 18.2379 87.0995 18.0233C86.8935 17.8114 86.7905 17.5465 86.7905 17.2285V9.68062C86.7905 9.3627 86.8935 9.09776 87.0995 8.88582C87.3054 8.67387 87.5668 8.56525 87.8837 8.56525C88.2006 8.56525 88.4593 8.67122 88.6679 8.88582C88.8739 9.10041 88.9769 9.36535 88.9769 9.68062V11.3974L88.8501 10.1734C88.9848 9.88197 89.1564 9.62233 89.3703 9.39714C89.5815 9.17195 89.8218 8.98384 90.0885 8.83018C90.3552 8.67917 90.6404 8.56525 90.944 8.49107C91.2477 8.41689 91.5513 8.38245 91.855 8.38245C92.2194 8.38245 92.5257 8.48577 92.7739 8.69242C93.0221 8.89907 93.1462 9.1428 93.1462 9.42363C93.1462 9.82633 93.0432 10.1151 92.8373 10.2926C92.6313 10.4701 92.4069 10.5575 92.1639 10.5575C91.921 10.5575 91.723 10.5152 91.5355 10.4304C91.348 10.3456 91.1315 10.3032 90.8886 10.3032C90.6694 10.3032 90.4476 10.3562 90.2232 10.4595C89.9987 10.5628 89.7928 10.7245 89.6027 10.9443C89.4125 11.1642 89.262 11.4345 89.1485 11.7577C89.0323 12.0809 88.9742 12.4624 88.9742 12.8995V17.2312C88.9742 17.5491 88.8712 17.814 88.6653 18.026C88.4593 18.2406 88.1979 18.3466 87.8811 18.3466L87.8837 18.3439Z" fill="#222222"/>
<path d="M39.1825 8.22882L38.2292 10.3536C38.2292 10.3536 36.0482 15.3899 35.1372 16.5053C35.2587 16.2987 35.3616 16.0947 35.4514 15.8986C35.998 14.6534 36.6502 12.7459 36.6344 10.6636L36.7585 8.70305L36.769 8.5229L36.7743 8.46461V8.45931C36.8535 8.32155 38.863 4.71582 38.9739 3.28253C39.0848 1.82275 38.4167 1.52603 38.4167 1.52603C38.826 1.12333 39.3066 0.826607 39.7898 0.890191C40.6268 0.998813 40.9569 2.27049 40.9727 2.88513C40.9727 2.88513 41.2156 4.55686 39.1825 8.22617V8.22882Z" fill="#D9DDDA"/>
<path d="M32.8926 15.2469C32.6364 15.6655 32.3407 16.0682 31.9921 16.4444C31.7545 16.704 31.4984 16.9477 31.2264 17.1729C30.9888 17.369 30.7432 17.5359 30.7537 17.8803C30.759 18.0446 30.8303 18.2168 30.9623 18.3201C31.1709 18.487 31.7624 18.9427 32.6787 18.8049C33.5949 18.6671 34.8993 17.1411 35.4459 15.896C35.9925 14.6508 36.6421 12.7433 36.6289 10.6582L42.0657 9.61705C41.9495 10.8463 41.9019 12.0942 41.9574 13.3261C42.0287 14.8283 42.3799 16.5609 43.4757 17.6657C44.3312 18.5294 46.1716 18.9851 47.0007 17.8088C47.0007 17.8088 47.5341 17.2365 46.7763 16.9583C45.8944 16.6325 45.1286 15.5462 44.8382 14.6799C44.3048 13.0877 44.3576 11.4689 44.5213 9.82105C44.6877 8.15197 44.9966 6.49614 45.4481 4.87741C45.7069 3.94484 46.0132 3.02553 46.3644 2.12476C46.5703 1.59489 47.1328 0.474228 46.1505 0.362956C45.5432 0.294074 44.8778 0.320567 44.3523 0.66498C43.6948 1.09947 43.3806 1.98699 43.1799 2.71821C42.8763 3.82298 42.6334 4.97013 42.5066 6.10934L42.3112 7.61416L36.753 8.70038C36.753 8.70038 36.9325 6.11729 36.9906 5.50265C37.0487 4.888 37.2151 3.14475 37.6692 2.45062C38.1234 1.7565 38.9525 0.7789 39.7895 0.887523C40.6266 0.996145 40.9566 2.27047 40.9725 2.88511C40.9725 2.88511 41.0306 1.82273 40.4681 0.961704C39.6258 -0.325868 37.6983 -0.193402 36.5893 0.614642C35.9397 1.08622 35.4618 1.7671 35.1423 2.50361C34.8228 3.24012 34.6538 4.03492 34.5455 4.83237C34.3554 6.23916 34.4029 7.6592 34.3765 9.07129C34.3765 9.07129 34.3686 10.4675 34.2471 11.2411C34.02 12.6744 33.6319 14.0388 32.8978 15.2469H32.8926Z" fill="#0DBA53"/>
</g>
<defs>
<clipPath id="clip0_2262_171">
<rect width="93.1489" height="22" fill="white"/>
</clipPath>
</defs>
</svg>
